:FULLY-SPECIFIED
:FORCE-ALL-JOINTS-BE-3DOF
:DEGREES
3160
root 0.947088 16.9255 -33.3592 6.04011 5.17455 -3.79645
lfemur -18.5492 -2.46095 -8.20152
ltibia 35.2024 -0 0
lfoot -16.4033 7.64587 -0.000787693
ltoes -39.3052 0 0
rfemur -19.3771 -0.186749 18.5523
rtibia 38.9749 -0 0
rfoot -12.0941 -21.0725 0.000178023
rtoes -16.4756 0 0
lowerback 5.6358 1.54527 -0.530048
upperback -3.96248 2.15759 1.89089
thorax -7.40967 1.14426 2.02265
lowerneck -5.40112 -5.15272 -7.93734
upperneck 9.28656 -6.80575 6.02185
head 4.11568 -3.34435 2.7364
lclavicle 4.61363e-014 1.66482e-014 0
lhumerus -33.2058 -18.4239 94.8395
lradius 51.3322 -0 0
lwrist -9.24748 0 0
lhand -33.87 30.7973 -0.00106174
lfingers 7.12502 -0 0
lthumb -7.05404 60.6596 -0.00104596
rclavicle 4.61363e-014 1.66482e-014 0
rhumerus -35.4422 13.8433 -81.3358
rradius 50.4185 -0 0
rwrist 0.990813 0 0
rhand -28.8555 -33.8158 0.00263173
rfingers 7.12502 -0 0
rthumb -2.21214 -63.7833 0.00251522
3161
root 0.953915 16.9282 -33.3548 6.03548 5.07968 -3.82531
lfemur -18.4736 -2.44681 -8.20561
ltibia 35.1663 -0 0
lfoot -16.3958 7.71632 -0.000743226
ltoes -39.3746 0 0
rfemur -19.3292 -0.158481 18.5561
rtibia 38.8884 -0 0
rfoot -12.0687 -21.0183 0.000212722
rtoes -16.4736 0 0
lowerback 5.60447 1.55987 -0.540473
upperback -3.96435 2.17569 1.88492
thorax -7.39441 1.1535 2.02077
lowerneck -5.42891 -5.14464 -7.93199
upperneck 9.35604 -6.79453 6.00745
head 4.14126 -3.339 2.732
lclavicle 4.61363e-014 1.66482e-014 0
lhumerus -33.1342 -18.1993 94.7485
lradius 50.7953 -0 0
lwrist -9.39909 0 0
lhand -33.8932 30.8152 -0.00101704
lfingers 7.12502 -0 0
lthumb -7.07641 60.6768 -0.00100103
rclavicle 4.61363e-014 1.66482e-014 0
rhumerus -35.4243 13.5726 -81.3375
rradius 49.8911 -0 0
rwrist 1.06811 0 0
rhand -28.7667 -33.7598 0.00270923
rfingers 7.12502 -0 0
rthumb -2.12639 -63.7282 0.00258878
3162
root 0.960742 16.9308 -33.3504 6.03125 4.98491 -3.85309
lfemur -18.3989 -2.43142 -8.21006
ltibia 35.1308 -0 0
lfoot -16.3888 7.78516 -0.000680771
ltoes -39.4441 0 0
rfemur -19.2833 -0.131239 18.5595
rtibia 38.8047 -0 0
rfoot -12.0445 -20.9641 0.000243133
rtoes -16.4711 0 0
lowerback 5.5743 1.57448 -0.550425
upperback -3.96616 2.19386 1.87894
thorax -7.37974 1.16275 2.0186
lowerneck -5.45542 -5.13607 -7.92648
upperneck 9.42326 -6.78261 5.9925
head 4.16625 -3.33336 2.72788
lclavicle 4.61363e-014 1.66482e-014 0
lhumerus -33.0602 -17.9774 94.659
lradius 50.259 -0 0
lwrist -9.55034 0 0
lhand -33.9149 30.8342 -0.000948567
lfingers 7.12502 -0 0
lthumb -7.0974 60.6951 -0.000932721
rclavicle 4.61363e-014 1.66482e-014 0
rhumerus -35.4058 13.3052 -81.3392
rradius 49.372 -0 0
rwrist 1.14179 0 0
rhand -28.6772 -33.7037 0.00271857
rfingers 7.12502 -0 0
rthumb -2.03989 -63.673 0.0025972
3163
root 0.967569 16.9335 -33.346 6.02741 4.89068 -3.87984
lfemur -18.3252 -2.41515 -8.21485
ltibia 35.0957 -0 0
lfoot -16.3821 7.85253 -0.000603847
ltoes -39.5129 0 0
rfemur -19.2392 -0.1049 18.5625
rtibia 38.7236 -0 0
rfoot -12.0215 -20.9101 0.000267771
rtoes -16.468 0 0
lowerback 5.54533 1.58901 -0.559926
upperback -3.96815 2.21197 1.87304
thorax -7.36594 1.17196 2.01623
lowerneck -5.48082 -5.12704 -7.92078
upperneck 9.48872 -6.77006 5.97721
head 4.19074 -3.32746 2.724
lclavicle 4.61363e-014 1.66482e-014 0
lhumerus -32.9845 -17.7582 94.571
lradius 49.7245 -0 0
lwrist -9.70151 0 0
lhand -33.9353 30.8537 -0.000860443
lfingers 7.12502 -0 0
lthumb -7.11709 60.714 -0.000845112
rclavicle 4.61363e-014 1.66482e-014 0
rhumerus -35.387 13.0413 -81.3405
rradius 48.8611 -0 0
rwrist 1.21241 0 0
rhand -28.5871 -33.6481 0.0026591
rfingers 7.12502 -0 0
rthumb -1.95292 -63.6182 0.00253987
3164
root 0.974396 16.9361 -33.3415 6.02397 4.7974 -3.90558
lfemur -18.2526 -2.39841 -8.21997
ltibia 35.0611 -0 0
lfoot -16.3757 7.91854 -0.000516321
ltoes -39.5801 0 0
rfemur -19.1966 -0.0793364 18.5651
rtibia 38.6448 -0 0
rfoot -11.9995 -20.8567 0.000285214
rtoes -16.4644 0 0
lowerback 5.5176 1.60338 -0.568996
upperback -3.97055 2.22994 1.86729
thorax -7.3533 1.18109 2.01376
lowerneck -5.5053 -5.11759 -7.91486
upperneck 9.55291 -6.75698 5.96177
head 4.21483 -3.32132 2.72032
lclavicle 4.61363e-014 1.66482e-014 0
lhumerus -32.9078 -17.5412 94.4844
lradius 49.1933 -0 0
lwrist -9.85286 0 0
lhand -33.9544 30.8732 -0.000757138
lfingers 7.12502 -0 0
lthumb -7.13556 60.733 -0.000742656
rclavicle 4.61363e-014 1.66482e-014 0
rhumerus -35.3681 12.781 -81.3409
rradius 48.3583 -0 0
rwrist 1.28053 0 0
rhand -28.4969 -33.5935 0.00253242
rfingers 7.12502 -0 0
rthumb -1.86575 -63.5643 0.00241835
3165
root 0.981222 16.9388 -33.3371 6.02091 4.70548 -3.93035
lfemur -18.1813 -2.3816 -8.22541
ltibia 35.0269 -0 0
lfoot -16.3695 7.98331 -0.000422383
ltoes -39.6449 0 0
rfemur -19.1553 -0.0544253 18.5672
rtibia 38.568 -0 0
rfoot -11.9786 -20.8042 0.000294077
rtoes -16.4602 0 0
lowerback 5.49115 1.61751 -0.577656
upperback -3.97362 2.24765 1.86174
thorax -7.3421 1.19008 2.01127
lowerneck -5.52904 -5.10777 -7.90869
upperneck 9.61631 -6.74343 5.9464
head 4.23862 -3.31496 2.71677
lclavicle 4.61363e-014 1.66482e-014 0
lhumerus -32.831 -17.3264 94.3991
lradius 48.6666 -0 0
lwrist -10.0047 0 0
lhand -33.9724 30.8923 -0.000643429
lfingers 7.12502 -0 0
lthumb -7.1529 60.7514 -0.000630098
rclavicle 4.61363e-014 1.66482e-014 0
rhumerus -35.3493 12.5246 -81.3399
rradius 47.8633 -0 0
rwrist 1.34672 0 0
rhand -28.4067 -33.5403 0.00234233
rfingers 7.12502 -0 0
rthumb -1.77864 -63.512 0.00223629
3166
root 0.988049 16.9415 -33.3327 6.01823 4.61536 -3.95418
lfemur -18.1114 -2.36509 -8.23114
ltibia 34.9929 -0 0
lfoot -16.3633 8.04697 -0.000326537
ltoes -39.7064 0 0
rfemur -19.1152 -0.0300415 18.5689
rtibia 38.493 -0 0
rfoot -11.9585 -20.7529 0.000292995
rtoes -16.4556 0 0
lowerback 5.46602 1.6313 -0.585928
upperback -3.9776 2.265 1.85648
thorax -7.33263 1.19891 2.00885
lowerneck -5.55223 -5.09761 -7.90223
upperneck 9.6794 -6.72951 5.9313
head 4.26222 -3.30841 2.71331
lclavicle 4.61363e-014 1.66482e-014 0
lhumerus -32.7549 -17.1135 94.3152
lradius 48.1458 -0 0
lwrist -10.1572 0 0
lhand -33.9893 30.9103 -0.000524345
lfingers 7.12502 -0 0
lthumb -7.16918 60.7689 -0.00051243
rclavicle 4.61363e-014 1.66482e-014 0
rhumerus -35.3311 12.2721 -81.3372
rradius 47.3759 -0 0
rwrist 1.41153 0 0
rhand -28.3168 -33.4893 0.00209484
rfingers 7.12502 -0 0
rthumb -1.69185 -63.4616 0.00199949
3167
root 0.994876 16.9441 -33.3282 6.01594 4.52744 -3.9771
lfemur -18.043 -2.3493 -8.23715
ltibia 34.9592 -0 0
lfoot -16.3569 8.10965 -0.000233584
ltoes -39.7637 0 0
rfemur -19.0759 -0.00606045 18.5701
rtibia 38.4195 -0 0
rfoot -11.9392 -20.7031 0.000280601
rtoes -16.4506 0 0
lowerback 5.44224 1.64469 -0.593831
upperback -3.98274 2.2819 1.85157
thorax -7.32517 1.20752 2.00661
lowerneck -5.57504 -5.08716 -7.89546
upperneck 9.74267 -6.7153 5.91667
head 4.28571 -3.30168 2.70989
lclavicle 4.61363e-014 1.66482e-014 0
lhumerus -32.6803 -16.9024 94.2327
lradius 47.6322 -0 0
lwrist -10.3107 0 0
lhand -34.0051 30.9268 -0.000405115
lfingers 7.12502 -0 0
lthumb -7.1845 60.7849 -0.000394847
rclavicle 4.61363e-014 1.66482e-014 0
rhumerus -35.3136 12.0238 -81.3323
rradius 46.896 -0 0
rwrist 1.47554 0 0
rhand -28.2276 -33.4408 0.00179812
rfingers 7.12502 -0 0
rthumb -1.60565 -63.4139 0.00171577
3168
root 1.0017 16.9468 -33.3238 6.01401 4.44216 -3.99915
lfemur -17.9763 -2.3346 -8.24344
ltibia 34.9257 -0 0
lfoot -16.3503 8.17145 -0.000148612
ltoes -39.816 0 0
rfemur -19.0373 0.0176426 18.5708
rtibia 38.3472 -0 0
rfoot -11.9207 -20.6551 0.000255515
rtoes -16.4451 0 0
lowerback 5.41986 1.65758 -0.601388
upperback -3.98927 2.29823 1.84709
thorax -7.32 1.21586 2.00464
lowerneck -5.59766 -5.07645 -7.88834
upperneck 9.8066 -6.70087 5.90272
head 4.30919 -3.2948 2.70646
lclavicle 4.61363e-014 1.66482e-014 0
lhumerus -32.6079 -16.6929 94.1514
lradius 47.1272 -0 0
lwrist -10.4655 0 0
lhand -34.0201 30.9413 -0.000291136
lfingers 7.12502 -0 0
lthumb -7.19893 60.7989 -0.000282705
rclavicle 4.61363e-014 1.66482e-014 0
rhumerus -35.2972 11.7798 -81.3248
rradius 46.4235 -0 0
rwrist 1.53931 0 0
rhand -28.1392 -33.3954 0.0014624
rfingers 7.12502 -0 0
rthumb -1.52032 -63.3692 0.00139495
3169
root 1.00853 16.9494 -33.3194 6.01247 4.35992 -4.02036
lfemur -17.9114 -2.32141 -8.25
ltibia 34.8923 -0 0
lfoot -16.3434 8.23252 -7.69898e-005
ltoes -39.8626 0 0
rfemur -18.9991 0.0411923 18.5711
rtibia 38.276 -0 0
rfoot -11.9027 -20.6092 0.00021634
rtoes -16.4392 0 0
lowerback 5.39891 1.6699 -0.608618
upperback -3.99745 2.3139 1.84309
thorax -7.31741 1.22389 2.00302
lowerneck -5.62028 -5.06552 -7.88085
upperneck 9.87169 -6.68632 5.88965
head 4.33277 -3.2878 2.70296
lclavicle 4.61363e-014 1.66482e-014 0
lhumerus -32.5385 -16.4847 94.0714
lradius 46.6321 -0 0
lwrist -10.6219 0 0
lhand -34.0342 30.9531 -0.000187941
lfingers 7.12502 -0 0
lthumb -7.21255 60.8103 -0.000181496
rclavicle 4.61363e-014 1.66482e-014 0
rhumerus -35.2822 11.5403 -81.3142
rradius 45.958 -0 0
rwrist 1.60339 0 0
rhand -28.052 -33.3537 0.00109987
rfingers 7.12502 -0 0
rthumb -1.43611 -63.3281 0.00104872
3170
root 1.01536 16.9521 -33.315 6.01128 4.28115 -4.04077
lfemur -17.8484 -2.31011 -8.25681
ltibia 34.8589 -0 0
lfoot -16.336 8.29296 -2.43595e-005
ltoes -39.9024 0 0
rfemur -18.9612 0.0647132 18.5709
rtibia 38.2055 -0 0
rfoot -11.8853 -20.5658 0.000161656
rtoes -16.4329 0 0
lowerback 5.37944 1.68156 -0.615542
upperback -4.00752 2.3288 1.83965
thorax -7.31769 1.23158 2.00185
lowerneck -5.64308 -5.05442 -7.87296
upperneck 9.93841 -6.67172 5.87767
head 4.35653 -3.28068 2.69936
lclavicle 4.61363e-014 1.66482e-014 0
lhumerus -32.4729 -16.2777 93.9925
lradius 46.1482 -0 0
lwrist -10.78 0 0
lhand -34.0476 30.9619 -0.000101175
lfingers 7.12502 -0 0
lthumb -7.22545 60.8186 -9.68253e-005
rclavicle 4.61363e-014 1.66482e-014 0
rhumerus -35.2688 11.3055 -81.3001
rradius 45.4995 -0 0
rwrist 1.66835 0 0
rhand -27.9663 -33.3162 0.000724564
rfingers 7.12502 -0 0
rthumb -1.35329 -63.2912 0.000690536
3171
root 1.02218 16.9547 -33.3105 6.01046 4.20627 -4.06039
lfemur -17.7875 -2.30109 -8.26386
ltibia 34.8255 -0 0
lfoot -16.3281 8.35291 3.36532e-006
ltoes -39.9348 0 0
rfemur -18.9233 0.0883299 18.5702
rtibia 38.1355 -0 0
rfoot -11.8683 -20.5251 9.00254e-005
rtoes -16.4263 0 0
lowerback 5.36147 1.69248 -0.622181
upperback -4.01972 2.34282 1.83684
thorax -7.32111 1.23886 2.00122
lowerneck -5.66624 -5.04319 -7.86463
upperneck 10.0072 -6.65716 5.86699
head 4.38059 -3.27348 2.69558
lclavicle 4.61363e-014 1.66482e-014 0
lhumerus -32.4119 -16.0717 93.9148
lradius 45.6769 -0 0
lwrist -10.9402 0 0
lhand -34.0603 30.967 -3.65831e-005
lfingers 7.12502 -0 0
lthumb -7.23772 60.8234 -3.43953e-005
rclavicle 4.61363e-014 1.66482e-014 0
rhumerus -35.2574 11.0755 -81.282
rradius 45.0478 -0 0
rwrist 1.73476 0 0
rhand -27.8822 -33.2835 0.000352204
rfingers 7.12502 -0 0
rthumb -1.27213 -63.259 0.000335464
